{"title":"The.Penguins.Of.Madagascar.Sting.Operation.DVDRip.XviD-EXViD","uid":6654567,"size":137666994,"categoryP":"video","categoryS":"tv_shows","magnet":"?xt=urn:btih:d17e373147ff414bb4bcf4e6930486415945a2d2&amp;dn=The.Penguins.Of.Madagascar.Sting.Operation.DVDRip.XviD-EXViD&amp;tr=udp%3A%2F%2Ftracker.openbittorrent.com%3A80&amp;tr=udp%3A%2F%2Fopen.demonii.com%3A1337&amp;tr=udp%3A%2F%2Ftracker.coppersurfer.tk%3A6969&amp;tr=udp%3A%2F%2Fexodus.desync.com%3A6969","seeders":0,"leechers":0,"uploader":"TvTeam","files":6,"time":1315284859,"description":". \n  &lt;a href=&quot;\nhttp://www.torrentday.com/&quot; rel=&quot;nofollow&quot; target=&quot;_NEW&quot;&gt;\nhttp://www.torrentday.com/&lt;/a&gt;        :     The Hottest Private Tracker On The Net!!!\n\n\nTo Avoid Fakes, ALWAYS Check That The Torrent Was Added By: TvTeam.\n\n\n               www . TorrentDay . Com \n(((((((((((((= Enjoy No RAR releases =))))))))))))))))))))\n\n...................................NFO:....................................\n\n.                                                                                                     \n       \n     \n     \n       \n       \n     \n     \n                                         \n                                         \n                EXVID                    \n                                         \n         \n                                         \n         Filled the Archives             \n                                         \n         \n                                         \n                With:                    \n                                         \n         \n                                         \n                                    \n     E240                           \n                                    \n     SP               (C) 2009      \n                                         \n     \n     \n     \n                                                                                  \n                                                                                   \n      The.Penguins.Of.Madagascar.Sting.Operation.DVDRip.XviD-EXViD                  \n                                                                                   \n                                                                                  \n     \n                                                                                               \nEXViD aims to iNTERNAL those releases which have been lost in the archives.\nEXViD aims to PRE non-internal releases which have poor sources and are likely skipped by others.\n &lt;a href=&quot;\nhttp://www.imdb.com/title/tt0892700/&quot; rel=&quot;nofollow&quot; target=&quot;_NEW&quot;&gt;\nhttp://www.imdb.com/title/tt0892700/&lt;/a&gt;\nSubtitles: NL, EN, EN HI, DE, FR\nDate: 2011.09\n\nDirector: Bret Haaland\n\nGenres:\nAnimation | Comedy | Family\n\nPlot:\nThe daily adventures of penguins living in New York's Central Park Zoo. \n\nCast:\nCredited cast:\nJeff Bennett \t... \tKowalski (51 episodes, 2008-2011) \nJohn Di Maggio \t... \tRico (51 episodes, 2008-2011) \nTom McGrath \t... \tSkipper (51 episodes, 2008-2011) \nJames Patrick Stuart \t... \tPrivate (51 episodes, 2008-2011) \nAndy Richter \t... \tMort (50 episodes, 2008-2011) \nDanny Jacobs \t... \tKing Julien (49 episodes, 2008-2011) \nKevin Michael Richardson \t... \tMaurice (49 episodes, 2008-2011) \nNicole Sullivan \t... \tMarlene (43 episodes, 2009-2011) \nMary Scheer \t... \tAlice (29 episodes, 2009-2011) \nConrad Vernon \t... \tMason (21 episodes, 2009-2011)\n\nStats:\nFormat                           : AVI\nFormat/Info                      : Audio Video Interleave\nFile size                        : 121 MiB\nDuration                         : 11mn 18s\nOverall bit rate                 : 1 497 Kbps\nWriting application              : VirtualDubMod 1.5.10.2 (build 2540/release)\nWriting library                  : VirtualDubMod build 2540/release\n\nVideo\nID                               : 0\nFormat                           : MPEG-4 Visual\nFormat profile                   : Advanced Simple@L5\nFormat settings, BVOP            : Yes\nFormat settings, QPel            : No\nFormat settings, GMC             : No warppoints\nFormat settings, Matrix          : Default (H.263)\nMuxing mode                      : Packed bitstream\nCodec ID                         : XVID\nCodec ID/Hint                    : XviD\nDuration                         : 11mn 18s\nBit rate                         : 1 040 Kbps\nWidth                            : 640 pixels\nHeight                           : 352 pixels\nDisplay aspect ratio             : 16:9\nFrame rate                       : 25.000 fps\nColor space                      : YUV\nChroma subsampling               : 4:2:0\nBit depth                        : 8 bits\nScan type                        : Progressive\nBits/(Pixel*Frame)               : 0.185\nStream size                      : 84.1 MiB (69%)\nWriting library                  : XviD 62\n\nAudio\nID                               : 1\nFormat                           : AC-3\nFormat/Info                      : Audio Coding 3\nMode extension                   : CM (complete main)\nCodec ID                         : 2000\nDuration                         : 11mn 17s\nBit rate mode                    : Constant\nBit rate                         : 448 Kbps\nChannel(s)                       : 6 channels\nChannel positions                : Front: L C R, Side: L R, LFE\nSampling rate                    : 48.0 KHz\nBit depth                        : 16 bits\nStream size                      : 36.2 MiB (30%)\nAlignment                        : Split accross interleaves\nInterleave, duration             : 40 ms (1.00 video frame)\nInterleave, preload duration     : 500 ms\n\n\n\n\nRelease notes:\nenjoy!\n\nLooking for:\n75TB+ Archives\nDUTCH/FLEMiSH Archives\n                                                                                                    \nGreets: CRBS EPiSODE FiCO FLS iLS KLASSiGER LiPSYNC MADE NODLABS RUNNER SPRiNTER      \n   \n\n                                                                    ASCII DONE BY XX^NFO 2oo9","torrent":{"xt":"urn:btih:d17e373147ff414bb4bcf4e6930486415945a2d2","amp;dn":"The.Penguins.Of.Madagascar.Sting.Operation.DVDRip.XviD-EXViD","amp;tr":["udp%3A%2F%2Ftracker.openbittorrent.com%3A80","udp%3A%2F%2Fopen.demonii.com%3A1337","udp%3A%2F%2Ftracker.coppersurfer.tk%3A6969","udp%3A%2F%2Fexodus.desync.com%3A6969"],"infoHash":"d17e373147ff414bb4bcf4e6930486415945a2d2","infoHashBuffer":{"type":"Buffer","data":[209,126,55,49,71,255,65,75,180,188,244,230,147,4,134,65,89,69,162,210]},"announce":[],"urlList":[]}}